<svg xmlns="http://www.w3.org/2000/svg" xmlns:xlink="http://www.w3.org/1999/xlink" width="1384" zoomAndPan="magnify" viewBox="0 0 1038 779.999994" height="1040" preserveAspectRatio="xMidYMid meet" version="1.0"><defs><g/><clipPath id="dc3f719863"><path d="M 207.53125 79.058594 L 830.78125 79.058594 L 830.78125 702 L 207.53125 702 Z M 207.53125 79.058594 " clip-rule="nonzero"/></clipPath><clipPath id="1709c2d292"><path d="M 422.285156 186.667969 L 597 186.667969 L 597 498.667969 L 422.285156 498.667969 Z M 422.285156 186.667969 " clip-rule="nonzero"/></clipPath><clipPath id="6518040b70"><path d="M 234.308594 186.667969 L 422.558594 186.667969 L 422.558594 498.667969 L 234.308594 498.667969 Z M 234.308594 186.667969 " clip-rule="nonzero"/></clipPath><clipPath id="e8a9754efc"><path d="M 615.714844 186.667969 L 803.964844 186.667969 L 803.964844 498.667969 L 615.714844 498.667969 Z M 615.714844 186.667969 " clip-rule="nonzero"/></clipPath><clipPath id="49d941d098"><path d="M 0.714844 0.667969 L 188.683594 0.667969 L 188.683594 312.480469 L 0.714844 312.480469 Z M 0.714844 0.667969 " clip-rule="nonzero"/></clipPath><clipPath id="39e7300ec9"><rect x="0" width="189" y="0" height="313"/></clipPath></defs><g clip-path="url(#dc3f719863)"><path fill="#000000" d="M 518.996094 79.058594 C 691.050781 79.058594 830.464844 218.472656 830.464844 390.527344 C 830.464844 562.582031 691.050781 701.992188 518.996094 701.992188 C 346.941406 701.992188 207.53125 562.582031 207.53125 390.527344 C 207.53125 218.472656 346.941406 79.058594 518.996094 79.058594 Z M 518.996094 79.058594 " fill-opacity="1" fill-rule="nonzero"/></g><g clip-path="url(#1709c2d292)"><path fill="#ffc62f" d="M 571.058594 186.625 L 422.535156 352.976562 L 507.601562 343.96875 L 460.917969 498.625 L 596.847656 302.828125 L 533.90625 309.824219 Z M 571.058594 186.625 " fill-opacity="1" fill-rule="evenodd"/></g><g clip-path="url(#6518040b70)"><path fill="#22ef1c" d="M 389.46875 498.316406 L 234.335938 343.179688 L 390.546875 186.972656 L 422.3125 218.730469 L 297.863281 343.179688 L 421.234375 466.554688 L 389.46875 498.316406 " fill-opacity="1" fill-rule="nonzero"/></g><g fill="#ffffff" fill-opacity="1"><g transform="translate(365.673678, 621.545269)"><g><path d="M 53.171875 -54.5625 C 51.847656 -55.289062 50.238281 -55.984375 48.34375 -56.640625 C 46.457031 -57.304688 43.957031 -57.640625 40.84375 -57.640625 C 36.800781 -57.640625 33.351562 -56.859375 30.5 -55.296875 C 27.65625 -53.742188 25.375 -51.675781 23.65625 -49.09375 C 21.9375 -46.507812 20.773438 -43.675781 20.171875 -40.59375 C 19.578125 -37.519531 19.578125 -34.441406 20.171875 -31.359375 C 20.773438 -28.273438 21.9375 -25.441406 23.65625 -22.859375 C 25.375 -20.273438 27.65625 -18.203125 30.5 -16.640625 C 33.351562 -15.085938 36.800781 -14.3125 40.84375 -14.3125 C 43.957031 -14.3125 46.691406 -14.675781 49.046875 -15.40625 C 51.398438 -16.132812 53.238281 -16.832031 54.5625 -17.5 L 56.453125 -2.78125 C 54.265625 -1.914062 51.742188 -1.203125 48.890625 -0.640625 C 46.046875 -0.078125 43.363281 0.203125 40.84375 0.203125 C 34.820312 0.203125 29.554688 -0.804688 25.046875 -2.828125 C 20.535156 -4.847656 16.773438 -7.582031 13.765625 -11.03125 C 10.753906 -14.476562 8.5 -18.335938 7 -22.609375 C 5.507812 -26.878906 4.765625 -31.300781 4.765625 -35.875 C 4.765625 -40.445312 5.507812 -44.867188 7 -49.140625 C 8.5 -53.421875 10.753906 -57.28125 13.765625 -60.71875 C 16.773438 -64.164062 20.535156 -66.898438 25.046875 -68.921875 C 29.554688 -70.941406 34.820312 -71.953125 40.84375 -71.953125 C 46.019531 -71.953125 50.691406 -71.023438 54.859375 -69.171875 Z M 53.171875 -54.5625 "/></g></g></g><g fill="#ffffff" fill-opacity="1"><g transform="translate(425.504496, 621.545269)"><g><path d="M 4.671875 -4.578125 L 6.453125 -19.484375 C 9.171875 -17.554688 11.875 -16.175781 14.5625 -15.34375 C 17.25 -14.519531 19.679688 -14.039062 21.859375 -13.90625 C 24.046875 -13.78125 25.671875 -13.75 26.734375 -13.8125 C 28.859375 -13.945312 30.664062 -14.691406 32.15625 -16.046875 C 33.644531 -17.410156 34.289062 -19.050781 34.09375 -20.96875 C 33.957031 -23.019531 33.191406 -24.578125 31.796875 -25.640625 C 30.410156 -26.703125 28.722656 -27.566406 26.734375 -28.234375 C 23.023438 -29.617188 19.5625 -31.222656 16.34375 -33.046875 C 13.132812 -34.867188 10.550781 -37.140625 8.59375 -39.859375 C 6.644531 -42.578125 5.671875 -45.921875 5.671875 -49.890625 C 5.671875 -53.867188 6.515625 -57.460938 8.203125 -60.671875 C 9.890625 -63.890625 12.253906 -66.457031 15.296875 -68.375 C 18.347656 -70.300781 21.828125 -71.363281 25.734375 -71.5625 C 27.597656 -71.695312 29.867188 -71.628906 32.546875 -71.359375 C 35.234375 -71.097656 38.863281 -70.171875 43.4375 -68.578125 L 41.640625 -54.859375 C 37.734375 -56.453125 34.617188 -57.363281 32.296875 -57.59375 C 29.984375 -57.820312 28.265625 -57.90625 27.140625 -57.84375 C 24.617188 -57.707031 22.773438 -56.84375 21.609375 -55.25 C 20.453125 -53.664062 19.941406 -51.878906 20.078125 -49.890625 C 20.273438 -47.898438 21.132812 -46.390625 22.65625 -45.359375 C 24.1875 -44.335938 25.976562 -43.460938 28.03125 -42.734375 C 31.738281 -41.410156 35.148438 -39.769531 38.265625 -37.8125 C 41.378906 -35.863281 43.878906 -33.515625 45.765625 -30.765625 C 47.660156 -28.015625 48.609375 -24.75 48.609375 -20.96875 C 48.609375 -17.0625 47.742188 -13.515625 46.015625 -10.328125 C 44.296875 -7.148438 41.828125 -4.597656 38.609375 -2.671875 C 35.398438 -0.753906 31.578125 0.332031 27.140625 0.59375 C 25.804688 0.664062 23.992188 0.617188 21.703125 0.453125 C 19.421875 0.285156 16.820312 -0.175781 13.90625 -0.9375 C 11 -1.707031 7.921875 -2.921875 4.671875 -4.578125 Z M 4.671875 -4.578125 "/></g></g></g><g fill="#ffffff" fill-opacity="1"><g transform="translate(478.080082, 621.545269)"><g><path d="M 4.671875 -4.578125 L 6.453125 -19.484375 C 9.171875 -17.554688 11.875 -16.175781 14.5625 -15.34375 C 17.25 -14.519531 19.679688 -14.039062 21.859375 -13.90625 C 24.046875 -13.78125 25.671875 -13.75 26.734375 -13.8125 C 28.859375 -13.945312 30.664062 -14.691406 32.15625 -16.046875 C 33.644531 -17.410156 34.289062 -19.050781 34.09375 -20.96875 C 33.957031 -23.019531 33.191406 -24.578125 31.796875 -25.640625 C 30.410156 -26.703125 28.722656 -27.566406 26.734375 -28.234375 C 23.023438 -29.617188 19.5625 -31.222656 16.34375 -33.046875 C 13.132812 -34.867188 10.550781 -37.140625 8.59375 -39.859375 C 6.644531 -42.578125 5.671875 -45.921875 5.671875 -49.890625 C 5.671875 -53.867188 6.515625 -57.460938 8.203125 -60.671875 C 9.890625 -63.890625 12.253906 -66.457031 15.296875 -68.375 C 18.347656 -70.300781 21.828125 -71.363281 25.734375 -71.5625 C 27.597656 -71.695312 29.867188 -71.628906 32.546875 -71.359375 C 35.234375 -71.097656 38.863281 -70.171875 43.4375 -68.578125 L 41.640625 -54.859375 C 37.734375 -56.453125 34.617188 -57.363281 32.296875 -57.59375 C 29.984375 -57.820312 28.265625 -57.90625 27.140625 -57.84375 C 24.617188 -57.707031 22.773438 -56.84375 21.609375 -55.25 C 20.453125 -53.664062 19.941406 -51.878906 20.078125 -49.890625 C 20.273438 -47.898438 21.132812 -46.390625 22.65625 -45.359375 C 24.1875 -44.335938 25.976562 -43.460938 28.03125 -42.734375 C 31.738281 -41.410156 35.148438 -39.769531 38.265625 -37.8125 C 41.378906 -35.863281 43.878906 -33.515625 45.765625 -30.765625 C 47.660156 -28.015625 48.609375 -24.75 48.609375 -20.96875 C 48.609375 -17.0625 47.742188 -13.515625 46.015625 -10.328125 C 44.296875 -7.148438 41.828125 -4.597656 38.609375 -2.671875 C 35.398438 -0.753906 31.578125 0.332031 27.140625 0.59375 C 25.804688 0.664062 23.992188 0.617188 21.703125 0.453125 C 19.421875 0.285156 16.820312 -0.175781 13.90625 -0.9375 C 11 -1.707031 7.921875 -2.921875 4.671875 -4.578125 Z M 4.671875 -4.578125 "/></g></g></g><g fill="#ffffff" fill-opacity="1"><g transform="translate(530.655667, 621.545269)"><g/></g></g><g fill="#ffffff" fill-opacity="1"><g transform="translate(558.881499, 621.545269)"><g><path d="M 22.171875 0 L 7.953125 0 L 7.953125 -71.0625 L 22.171875 -71.0625 Z M 22.171875 0 "/></g></g></g><g fill="#ffffff" fill-opacity="1"><g transform="translate(589.095068, 621.545269)"><g><path d="M 1.59375 0 L 31.5 -73.640625 L 33 -73.640625 L 62.921875 0 L 46.90625 0 L 44.03125 -7.65625 L 20.46875 -7.65625 L 17.6875 0 Z M 25.640625 -20.96875 L 38.765625 -20.96875 L 32.296875 -39.453125 Z M 25.640625 -20.96875 "/></g></g></g><g clip-path="url(#e8a9754efc)"><g transform="matrix(1, 0, 0, 1, 615, 186)"><g clip-path="url(#39e7300ec9)"><g clip-path="url(#49d941d098)"><path fill="#22ef1c" d="M 33.519531 312.316406 L 188.652344 157.179688 L 32.441406 0.972656 L 0.679688 32.730469 L 125.125 157.179688 L 1.753906 280.554688 L 33.519531 312.316406 " fill-opacity="1" fill-rule="nonzero"/></g></g></g></g></svg>